<?xml version="1.0" encoding="utf-8"?>
<!-- Generator: Adobe Illustrator 17.0.0, SVG Export Plug-In . SVG Version: 6.00 Build 0)  -->
<!DOCTYPE svg PUBLIC "-//W3C//DTD SVG 1.1//EN" "http://www.w3.org/Graphics/SVG/1.1/DTD/svg11.dtd">
<svg version="1.1" id="Layer_1" xmlns="http://www.w3.org/2000/svg" xmlns:xlink="http://www.w3.org/1999/xlink" x="0px" y="0px"
	 width="2304px" height="2304px" viewBox="0 0 2304 2304" enable-background="new 0 0 2304 2304" xml:space="preserve">
<g>
	<g>
		<path fill="#532915" d="M42.539,304.572h93.538v935.386H42.539V304.572z"/>
		<g>
			<path fill="none" d="M599.267,1246.095v219.91h117.555c73.314,0,115.027-3.791,160.533-26.544
				c44.241-22.752,75.842-75.841,75.842-131.459c0-42.978-15.169-73.313-39.185-102.387c-0.133-0.152-0.273-0.295-0.407-0.446
				c-70.549,34.978-145.301,51.223-213.769,51.223C665.582,1256.391,631.916,1252.853,599.267,1246.095z"/>
			<path fill="none" d="M599.267,1147.469v10.027c32.264,9.24,65.641,14.204,99.305,14.204c20.801,0,62.614-1.264,113.857-17.666
				c-25.007-4.5-54.055-6.566-88.022-6.566H599.267z"/>
			<path fill="none" d="M896.315,1572.184c-44.242-17.696-82.162-21.489-182.021-21.489H599.267v362.778h131.459
				c78.37,0,126.404-3.792,176.965-24.017c58.145-24.017,98.595-88.482,98.595-159.269
				C1006.286,1658.138,958.253,1596.201,896.315,1572.184z"/>
			<path fill="#532915" d="M699.835,1256.391c68.468,0,143.22-16.245,213.769-51.223c26.902-13.338,53.19-29.407,78.287-48.334
				c53.68-40.483,101.907-94.054,138.98-162.098h-104.915c-34.361,45.928-70.553,79.938-106.014,105.139
				c-37.694,26.789-74.553,43.61-107.515,54.16c-51.242,16.401-93.055,17.666-113.857,17.666c-33.664,0-67.041-4.964-99.305-14.204
				c-32.614-9.341-64.079-23.076-93.538-40.553c-116.482-69.106-201.536-196.664-201.536-342.149
				c0-208.566,174.437-400.699,393.115-400.699c56.882,0,222.47,17.696,324.857,170.645h104.915
				c-36.657-87.219-188.341-255.335-428.508-255.335c-266.711,0-487.917,207.301-487.917,484.125
				c0,204.714,124.431,370.709,295.074,443.303c29.901,12.72,61.22,22.573,93.538,29.263
				C631.916,1252.853,665.582,1256.391,699.835,1256.391z"/>
		</g>
	</g>
	<g>
		<path fill="#C4302A" d="M1150.377,1062.778h511.934v84.691h-418.396v336.232h404.492v84.691h-404.492v345.082h418.396v84.691
			h-511.934V1062.778z"/>
		<path fill="#C4302A" d="M1784.92,1736.508c5.057,117.556,79.635,193.398,194.661,193.398c98.596,0,188.342-75.843,188.342-185.813
			c0-144.1-145.365-180.757-208.567-199.718c-84.691-25.28-242.695-60.674-242.695-246.487
			c0-145.363,115.028-251.543,262.919-251.543c152.95,0,259.128,117.555,259.128,254.072h-93.539
			c0-94.803-77.106-169.381-165.589-169.381c-107.443,0-169.38,82.163-169.38,163.061c0,113.763,99.858,140.308,222.47,175.7
			c230.054,61.937,228.789,242.695,228.789,270.504c0,144.1-116.291,274.295-281.88,274.295c-121.347,0-284.408-72.05-288.2-278.087
			H1784.92z"/>
		<g>
			<path fill="none" d="M896.315,1572.184c-44.242-17.696-82.162-21.489-182.021-21.489H599.267v362.778h131.459
				c78.37,0,126.404-3.792,176.965-24.017c58.145-24.017,98.595-88.482,98.595-159.269
				C1006.286,1658.138,958.253,1596.201,896.315,1572.184z"/>
			<path fill="#C4302A" d="M944.348,1500.134c32.865-26.545,102.386-78.37,102.386-188.341c0-20.763-3.413-93.441-54.843-154.96
				c-25.098,18.927-51.385,34.996-78.287,48.334c0.134,0.151,0.274,0.295,0.407,0.446c24.017,29.074,39.185,59.409,39.185,102.387
				c0,55.618-31.601,108.707-75.842,131.459c-45.505,22.753-87.219,26.544-160.533,26.544H599.267v-212.344v-7.566v-98.626h125.14
				c33.967,0,63.014,2.067,88.022,6.566c32.962-10.55,69.821-27.371,107.515-54.16c-43.291-22.37-101.32-37.097-179.104-37.097
				h-235.11v154.054v13.055v768.277h235.11c109.971,1.263,171.909-5.057,251.543-51.826
				c65.73-44.241,107.443-126.404,107.443-216.15C1099.824,1622.745,1037.887,1538.054,944.348,1500.134z M907.691,1889.456
				c-50.561,20.224-98.595,24.017-176.965,24.017H599.267v-362.778h115.027c99.859,0,137.78,3.792,182.021,21.489
				c61.938,24.017,109.971,85.954,109.971,158.004C1006.286,1800.975,965.837,1865.44,907.691,1889.456z"/>
		</g>
	</g>
	<g>
		<path fill="#C4302A" d="M1150.7,711.256h-66.372v-35.015h105.045v386.734H1150.7V711.256z"/>
		<path fill="#C4302A" d="M1424.021,676.764l-89.367,131.176l1.045,0.522c10.975-5.226,23.518-8.362,36.061-8.362
			c75.779,0,130.131,60.623,130.131,134.312c0,66.895-48.081,135.357-132.222,135.357c-81.527,0-132.221-62.713-132.221-137.447
			c0-44.422,22.472-77.347,46.513-113.407l96.16-142.151H1424.021z M1369.668,1034.754c54.875,0,93.548-44.422,93.548-99.819
			c0-53.829-38.673-99.819-93.548-99.819c-49.125,0-93.548,40.241-93.548,100.864
			C1276.12,978.834,1306.432,1034.754,1369.668,1034.754z"/>
	</g>
</g>
</svg>
