<?xml version="1.0" encoding="utf-8"?>
<!-- Generator: Adobe Illustrator 15.0.0, SVG Export Plug-In . SVG Version: 6.00 Build 0)  -->
<!DOCTYPE svg PUBLIC "-//W3C//DTD SVG 1.1//EN" "http://www.w3.org/Graphics/SVG/1.1/DTD/svg11.dtd">
<svg version="1.1" id="Layer_1" xmlns="http://www.w3.org/2000/svg" xmlns:xlink="http://www.w3.org/1999/xlink" x="0px" y="0px"
	 width="2304px" height="2304px" viewBox="0 0 2304 2304" enable-background="new 0 0 2304 2304" xml:space="preserve">
<g>
	<g>
		<path fill="#5E230C" d="M104.275,351.728h88.334v883.336h-88.334V351.728z"/>
		<g>
			<path fill="none" d="M630.024,1240.859v207.672h111.013c69.235,0,108.626-3.58,151.6-25.067
				c41.778-21.485,71.622-71.62,71.622-124.145c0-40.585-14.325-69.233-37.005-96.689c-0.126-0.143-0.258-0.278-0.384-0.421
				c-66.623,33.031-137.215,48.373-201.875,48.373C692.649,1250.582,660.856,1247.241,630.024,1240.859z"/>
			<path fill="none" d="M630.024,1147.721v9.47c30.468,8.727,61.988,13.413,93.779,13.413c19.643,0,59.13-1.193,107.521-16.682
				c-23.615-4.25-51.046-6.201-83.124-6.201H630.024z"/>
			<path fill="none" d="M910.542,1548.803c-41.779-16.712-77.59-20.293-171.893-20.293H630.024v342.59h124.144
				c74.01,0,119.371-3.581,167.118-22.679c54.91-22.682,93.108-83.559,93.108-150.407
				C1014.394,1629.974,969.034,1571.483,910.542,1548.803z"/>
			<path fill="#5E230C" d="M724.996,1250.582c64.659,0,135.251-15.342,201.875-48.373c25.405-12.597,50.229-27.771,73.931-45.645
				c50.692-38.229,96.237-88.82,131.245-153.078h-99.076c-32.449,43.373-66.627,75.49-100.114,99.289
				c-35.596,25.298-70.404,41.183-101.532,51.146c-48.391,15.488-87.877,16.682-107.521,16.682
				c-31.791,0-63.311-4.687-93.779-13.413c-30.8-8.821-60.514-21.791-88.334-38.297C431.689,1053.633,351.37,933.173,351.37,795.784
				c0-196.961,164.729-378.402,371.24-378.402c53.715,0,210.089,16.711,306.778,161.148h99.078
				c-34.619-82.365-177.861-241.126-404.663-241.126c-251.871,0-460.768,195.766-460.768,457.185
				c0,193.322,117.507,350.082,278.655,418.636c28.238,12.012,57.814,21.316,88.334,27.635
				C660.856,1247.241,692.649,1250.582,724.996,1250.582z"/>
		</g>
	</g>
	<g>
		<path fill="#E32D26" d="M1150.466,1067.743h483.447v79.978h-395.112v317.522h381.983v79.978h-381.983V1871.1h395.112v79.979
			h-483.447V1067.743z"/>
		<path fill="#E32D26" d="M1749.7,1703.982c4.775,111.014,75.203,182.637,183.83,182.637c93.107,0,177.861-71.623,177.861-175.473
			c0-136.083-137.277-170.699-196.961-188.605c-79.979-23.873-229.191-57.298-229.191-232.771
			c0-137.274,108.629-237.546,248.291-237.546c144.438,0,244.707,111.015,244.707,239.935h-88.334
			c0-89.528-72.814-159.956-156.373-159.956c-101.465,0-159.957,77.591-159.957,153.987c0,107.433,94.303,132.5,210.092,165.924
			c217.254,58.49,216.059,229.189,216.059,255.451c0,136.081-109.82,259.031-266.193,259.031
			c-114.596,0-268.582-68.041-272.164-262.613H1749.7z"/>
		<g>
			<path fill="none" d="M910.542,1548.803c-41.779-16.712-77.59-20.293-171.893-20.293H630.024v342.59h124.144
				c74.01,0,119.371-3.581,167.118-22.679c54.91-22.682,93.108-83.559,93.108-150.407
				C1014.394,1629.974,969.034,1571.483,910.542,1548.803z"/>
			<path fill="#E32D26" d="M955.904,1480.762c31.036-25.066,96.688-74.009,96.688-177.86c0-19.607-3.224-88.241-51.791-146.337
				c-23.702,17.873-48.525,33.048-73.931,45.645c0.125,0.143,0.258,0.278,0.384,0.421c22.68,27.456,37.005,56.104,37.005,96.689
				c0,52.524-29.843,102.659-71.622,124.145c-42.974,21.487-82.365,25.067-151.6,25.067H630.024v-200.527v-7.145v-93.139H748.2
				c32.077,0,59.508,1.951,83.124,6.201c31.128-9.964,65.936-25.849,101.532-51.146c-40.882-21.124-95.682-35.032-169.137-35.032
				H541.69v145.481v12.328v725.525h222.028c103.851,1.193,162.342-4.775,237.545-48.941
				c62.071-41.779,101.464-119.371,101.464-204.123C1102.728,1596.55,1044.236,1516.571,955.904,1480.762z M921.286,1848.421
				c-47.747,19.098-93.107,22.679-167.118,22.679H630.024v-342.59h108.625c94.303,0,130.114,3.581,171.893,20.293
				c58.492,22.681,103.852,81.171,103.852,149.211C1014.394,1764.862,976.195,1825.739,921.286,1848.421z"/>
		</g>
	</g>
	<g>
		<path fill="#E32D26" d="M1152.941,791.604h-0.989l-55.768,30.105l-8.391-33.067l70.083-37.508h37.014v320.794h-41.949V791.604z"/>
		<path fill="#E32D26" d="M1446.092,751.135v28.624l-139.668,292.17h-44.912l139.176-283.779v-0.987h-156.943v-36.027H1446.092z"/>
	</g>
</g>
</svg>
